<?xml version="1.0" encoding="UTF-8" standalone="no"?>
<!-- Created with Inkscape (http://www.inkscape.org/) -->
<svg id="svg8668" xmlns:rdf="http://www.w3.org/1999/02/22-rdf-syntax-ns#" xmlns="http://www.w3.org/2000/svg" height="48" viewBox="0 0 48 48" width="48" version="1.1" xmlns:cc="http://creativecommons.org/ns#" xmlns:dc="http://purl.org/dc/elements/1.1/">
 <metadata id="metadata8673">
  <rdf:RDF>
   <cc:Work rdf:about="">
    <dc:format>image/svg+xml</dc:format>
    <dc:type rdf:resource="http://purl.org/dc/dcmitype/StillImage"/>
    <dc:title/>
   </cc:Work>
  </rdf:RDF>
 </metadata>
 <g id="layer1">
  <path id="rect9507" d="m0 0h48v48h-48z" fill="#ff7f2a"/>
  <g id="g8700" fill="#fff" transform="matrix(0.656 0 0 0.656 14.922 14.889)">
   <g id="text8676">
    <path id="path9520" d="m14.644 34.825q-0.2-0.775-0.55-1.425t-0.9-1.125-1.3-0.725q-0.725-0.275-1.7-0.275-1.425 0-2.475 0.575-1.025 0.575-1.675 1.55-0.65 0.95-0.975 2.175-0.3 1.225-0.3 2.5t0.3 2.5q0.325 1.225 0.975 2.2 0.65 0.95 1.675 1.525 1.05 0.575 2.475 0.575 1.05 0 1.85-0.35 0.8-0.375 1.375-1 0.575-0.65 0.9-1.5t0.425-1.825h3.05q-0.1 1.6-0.7 2.925-0.575 1.325-1.575 2.3-1 0.95-2.35 1.475t-2.975 0.525q-2 0-3.6-0.725-1.575-0.75-2.675-2.025t-1.7-2.975q-0.575-1.7-0.575-3.625 0-1.9 0.575-3.6 0.6-1.7 1.7-2.975t2.675-2.025q1.6-0.75 3.6-0.75 1.5 0 2.825 0.425 1.325 0.4 2.325 1.2 1.025 0.775 1.65 1.9t0.775 2.575h-3.125z"/>
    <path id="path9522" d="m26.136 47.35q-1.55 0-2.775-0.5-1.2-0.525-2.05-1.425-0.825-0.9-1.275-2.15-0.425-1.25-0.425-2.75 0-1.475 0.425-2.725 0.45-1.25 1.275-2.15 0.85-0.9 2.05-1.4 1.225-0.525 2.775-0.525t2.75 0.525q1.225 0.5 2.05 1.4 0.85 0.9 1.275 2.15 0.45 1.25 0.45 2.725 0 1.5-0.45 2.75-0.425 1.25-1.275 2.15-0.825 0.9-2.05 1.425-1.2 0.5-2.75 0.5zm0-2.25q0.95 0 1.65-0.4t1.15-1.05 0.65-1.45q0.225-0.825 0.225-1.675 0-0.825-0.225-1.65-0.2-0.825-0.65-1.45-0.45-0.65-1.15-1.05t-1.65-0.4-1.65 0.4-1.15 1.05q-0.45 0.625-0.675 1.45-0.2 0.825-0.2 1.65 0 0.85 0.2 1.675 0.225 0.8 0.675 1.45t1.15 1.05 1.65 0.4z"/>
    <path id="path9524" d="m46.356 47h-2.8v-1.8h-0.05q-0.525 0.975-1.575 1.575-1.025 0.575-2.1 0.575-2.55 0-3.7-1.25-1.125-1.275-1.125-3.825v-8.2h2.85v7.925q0 1.7 0.65 2.4t1.825 0.7q0.9 0 1.5-0.275t0.975-0.725q0.375-0.475 0.525-1.125 0.175-0.65 0.175-1.4v-7.5h2.85v12.925z"/>
   </g>
   <g id="text8676-5">
    <path id="path9527" d="m14.644 14.036q-0.2-0.775-0.55-1.425t-0.9-1.125-1.3-0.725q-0.725-0.275-1.7-0.275-1.425 0-2.475 0.575-1.025 0.575-1.675 1.55-0.65 0.95-0.975 2.175-0.3 1.225-0.3 2.5t0.3 2.5q0.325 1.225 0.975 2.2 0.65 0.95 1.675 1.525 1.05 0.575 2.475 0.575 1.05 0 1.85-0.35 0.8-0.375 1.375-1 0.575-0.65 0.9-1.5t0.425-1.825h3.05q-0.1 1.6-0.7 2.925-0.575 1.325-1.575 2.3-1 0.95-2.35 1.475t-2.975 0.525q-2 0-3.6-0.725-1.575-0.75-2.675-2.025t-1.7-2.975q-0.575-1.7-0.575-3.625 0-1.9 0.575-3.6 0.6-1.7 1.7-2.975t2.675-2.025q1.6-0.75 3.6-0.75 1.5 0 2.825 0.425 1.325 0.4 2.325 1.2 1.025 0.775 1.65 1.9t0.775 2.575h-3.125z"/>
    <path id="path9529" d="m26.136 26.561q-1.55 0-2.775-0.5-1.2-0.525-2.05-1.425-0.825-0.9-1.275-2.15-0.425-1.25-0.425-2.75 0-1.475 0.425-2.725 0.45-1.25 1.275-2.15 0.85-0.9 2.05-1.4 1.225-0.525 2.775-0.525t2.75 0.525q1.225 0.5 2.05 1.4 0.85 0.9 1.275 2.15 0.45 1.25 0.45 2.725 0 1.5-0.45 2.75-0.425 1.25-1.275 2.15-0.825 0.9-2.05 1.425-1.2 0.5-2.75 0.5zm0-2.25q0.95 0 1.65-0.4t1.15-1.05 0.65-1.45q0.225-0.825 0.225-1.675 0-0.825-0.225-1.65-0.2-0.825-0.65-1.45-0.45-0.65-1.15-1.05t-1.65-0.4-1.65 0.4-1.15 1.05q-0.45 0.625-0.675 1.45-0.2 0.825-0.2 1.65 0 0.85 0.2 1.675 0.225 0.8 0.675 1.45t1.15 1.05 1.65 0.4z"/>
    <path id="path9531" d="m46.356 26.211h-2.8v-1.8h-0.05q-0.525 0.975-1.575 1.575-1.025 0.575-2.1 0.575-2.55 0-3.7-1.25-1.125-1.275-1.125-3.825v-8.2h2.85v7.925q0 1.7 0.65 2.4t1.825 0.7q0.9 0 1.5-0.275t0.975-0.725q0.375-0.475 0.525-1.125 0.175-0.65 0.175-1.4v-7.5h2.85v12.925z"/>
   </g>
  </g>
 </g>
</svg>
